<svg width="65" height="66" viewBox="0 0 65 66" fill="none" xmlns="http://www.w3.org/2000/svg">
<g clip-path="url(#clip0_549_1759)">
<path d="M65 33.0056C65.0222 51.0619 50.6098 66 32.5056 66C14.4013 66 -0.0110801 51.0507 6.39174e-06 32.9831C0.0110929 14.9156 14.4013 0 32.5166 0C50.6319 0 65.0333 14.9606 65 33.0056Z" fill="#FE9B00"/>
<path d="M57.483 37.1032C57.4276 36.9906 57.4719 36.9005 57.4719 36.8105C57.6604 34.8518 56.4298 33.1182 54.5673 32.7129C53.3478 32.454 52.2613 32.803 51.33 33.6135C50.1992 34.5928 49.1238 35.6398 48.0595 36.6979C46.7624 37.9925 45.4912 39.3095 44.2458 40.6491C43.37 41.5947 42.35 42.3264 41.1305 42.7542C37.6937 43.9474 33.9354 42.0788 32.6272 38.8367C32.4719 38.4427 32.483 38.3639 32.7935 38.0938C33.5141 37.4521 34.2458 36.8217 34.9664 36.1801C34.9886 36.1576 35.0107 36.1463 35.0329 36.1238C35.1216 36.0675 35.1881 35.9324 35.299 35.9887C35.4099 36.045 35.3433 36.1688 35.3544 36.2589C35.3981 37.1292 35.7401 37.9566 36.3211 38.598C36.9022 39.2394 37.6857 39.6543 38.5362 39.7711C40.299 40.0187 42.0617 38.9268 42.5939 37.2157C43.2258 35.1895 42.1726 33.1745 40.1327 32.5103C38.891 32.105 37.7602 32.3752 36.7735 33.2082C35.9642 33.8837 35.1881 34.5928 34.401 35.302C33.8799 35.7748 33.3589 36.2589 32.8267 36.7204C32.6237 36.8974 32.4867 37.1398 32.4387 37.4071C32.0174 39.5797 30.8201 41.2007 28.9243 42.2701C27.737 42.9424 26.3729 43.2217 25.0218 43.0694C23.5525 42.9418 22.1637 42.3335 21.064 41.3358C20.2865 40.6433 19.679 39.776 19.2901 38.803C19.2669 38.7562 19.2483 38.7072 19.2347 38.6566C19.1957 38.5743 19.1865 38.4806 19.2088 38.392C19.2311 38.3035 19.2835 38.2258 19.3566 38.1726C19.6116 37.9587 19.8555 37.7448 20.1105 37.5309C20.6316 37.0694 21.1527 36.6079 21.6848 36.1576C21.7735 36.0788 21.8622 35.9437 21.9731 35.9887C22.0839 36.0337 22.0396 36.1913 22.0507 36.3039C22.0763 37.1535 22.3803 37.9701 22.9144 38.6246C23.4485 39.2791 24.1823 39.734 24.9997 39.9174C25.9239 40.1173 26.8884 39.9514 27.6962 39.4534C28.5039 38.9554 29.0939 38.1631 29.3456 37.2382C30.0107 34.7504 28.0706 32.2964 25.5429 32.4202C24.7726 32.4434 24.0332 32.7333 23.4476 33.242C22.7269 33.8499 22.0174 34.4803 21.319 35.1107C20.5983 35.7523 19.8888 36.4052 19.1682 37.0469C19.0716 37.1269 18.9943 37.2285 18.9424 37.3436C18.8905 37.4588 18.8654 37.5845 18.8688 37.711V42.5966C18.8688 43.0581 18.8023 43.1257 18.3478 43.1144C17.9206 43.1142 17.4985 43.0206 17.1101 42.84C16.7218 42.6593 16.3763 42.3959 16.0972 42.0675C15.8755 41.8086 15.8311 41.8086 15.5318 41.9775C14.4343 42.5966 13.2702 42.9343 12.0174 42.8893C9.44534 42.7992 7.48303 41.6172 6.15266 39.3771C5.52633 38.3213 5.20373 37.1085 5.22139 35.8761C5.22259 34.2583 5.78374 32.6924 6.80676 31.4521C7.84889 30.1576 9.17926 29.3133 10.809 29.0431C12.9819 28.6942 14.9775 29.0994 16.6515 30.6416C17.1834 31.134 17.646 31.6984 18.0263 32.3189C18.0808 32.4436 18.1743 32.5465 18.2923 32.6116C18.3736 32.5587 18.4399 32.4852 18.4847 32.3984C18.5294 32.3115 18.551 32.2143 18.5473 32.1163C18.5362 31.0019 18.5473 29.8874 18.5473 28.7617C18.5473 26.2289 18.5436 23.6998 18.5362 21.1745C18.5362 20.6792 18.5917 20.6229 19.0906 20.6229C19.8262 20.6238 20.5358 20.8998 21.0839 21.3981C21.6319 21.8964 21.98 22.5822 22.0617 23.3246C22.0839 23.5038 22.095 23.6843 22.095 23.8649V29.7748C22.1061 30.045 22.1615 30.0788 22.4054 29.955C23.1182 29.5717 23.8908 29.3165 24.6892 29.2007C26.6737 28.9193 28.4476 29.4259 30.0218 30.6867C30.5488 31.1167 31.0085 31.6253 31.3855 32.1951C31.4075 32.2352 31.4335 32.2729 31.4631 32.3077C31.5407 32.4202 31.6072 32.5441 31.7513 32.5666C31.8289 32.5778 32.0507 32.2852 32.0617 32.1613C32.0805 32.0083 32.0879 31.854 32.0839 31.6998V23.7861C32.0839 22.1538 33.0817 20.9268 34.6671 20.6229C34.8414 20.5813 35.0202 20.5624 35.1992 20.5666C35.432 20.5779 35.5318 20.6679 35.5872 20.8931C35.624 21.0706 35.6389 21.2521 35.6316 21.4334V29.7523C35.6538 29.8987 35.6981 29.9437 35.8422 29.8874C36.0307 29.8086 36.2192 29.7186 36.4076 29.6398C39.0684 28.5591 42.0507 29.212 43.9797 31.3058C44.6271 32.0138 45.1318 32.8437 45.4653 33.7486L45.5318 33.9512C45.6427 34.2439 45.6759 34.2551 45.9088 34.0413L49.0351 31.2383C49.9114 30.4271 50.9754 29.854 52.1283 29.5722C53.7462 29.1875 55.4465 29.4069 56.9182 30.1903C58.39 30.9736 59.535 32.2687 60.1438 33.8386C60.2075 33.967 60.2269 34.1134 60.1987 34.2543C60.1706 34.3952 60.0965 34.5224 59.9886 34.6154C59.2236 35.3808 58.4808 36.1576 57.7158 36.9343C57.6507 37.0065 57.5714 37.064 57.483 37.1032V37.1032Z" fill="#191C31"/>
<path d="M54.4786 40.1536C54.4759 40.1963 54.4634 40.2379 54.4423 40.275C54.4211 40.3121 54.3918 40.3438 54.3566 40.3674C53.5473 41.1892 52.738 42.011 51.9398 42.844C51.8747 42.9216 51.7865 42.9756 51.6885 42.998C51.5905 43.0203 51.4881 43.0097 51.3965 42.9678C49.4897 42.2474 48.1408 40.9378 47.35 39.0391C47.2281 38.7577 47.2502 38.6676 47.472 38.4763C48.2591 37.7783 49.0573 37.0804 49.8444 36.3937C49.8942 36.3371 49.9601 36.2978 50.0329 36.2811C50.1105 36.3599 50.0883 36.4612 50.0994 36.5513C50.1392 37.0808 50.2706 37.599 50.4875 38.0823C51.0085 39.1855 51.8954 39.8158 53.0373 40.0973C53.2808 40.1537 53.5307 40.1764 53.7801 40.1648C54.0018 40.1423 54.2347 40.1536 54.4786 40.1536Z" fill="#191C31"/>
<path d="M15.8428 35.966C15.8982 37.9697 14.2131 39.7146 12.1621 39.7371C11.1822 39.7422 10.2402 39.3531 9.5421 38.6548C8.84402 37.9565 8.4467 37.0059 8.43704 36.011C8.40378 33.9622 9.98914 32.2061 12.1621 32.161C14.1687 32.116 15.8539 33.7821 15.8428 35.966Z" fill="#FF9C00"/>
</g>
<defs>
<clipPath id="clip0_549_1759">
<rect width="65" height="66" fill="white"/>
</clipPath>
</defs>
</svg>
