<svg width="65" height="66" viewBox="0 0 65 66" fill="none" xmlns="http://www.w3.org/2000/svg">
<path d="M2.70801 49.7507L31.3554 65.9999V37.7142L2.70801 21.465V49.7507Z" fill="#CCCCCC"/>
<path d="M2.70801 21.4652L31.3554 37.7144L60.0028 21.4652L31.3554 5.21594L2.70801 21.4652Z" fill="#F2F2F2"/>
<path d="M31.3555 37.7142V65.9999L60.0029 49.7507V21.465L31.3555 37.7142Z" fill="#E6E6E6"/>
<path d="M37.0849 34.5045L31.3555 37.7142L25.626 34.5045H37.0849Z" fill="#686868"/>
<path d="M31.3555 43.5319L37.085 34.5045L31.3555 37.7142V43.5319Z" fill="#383838"/>
<path d="M31.3555 43.5319L25.626 34.5045L31.3555 37.7142V43.5319Z" fill="black"/>
<path d="M2.70801 0V21.465L25.4284 23.8723L2.70801 0Z" fill="#F2F2F2"/>
<path d="M60.0029 0L40.2461 20.6626L60.0029 21.465V0Z" fill="#F2F2F2"/>
<path d="M55.6563 10.6322L50.5195 16.0486L55.6563 19.0577V10.6322Z" fill="#383838"/>
<path d="M7.05469 11.0334L11.9939 16.2493L7.05469 19.0578V11.0334Z" fill="#383838"/>
</svg>
