<svg width="66" height="65" viewBox="0 0 66 65" fill="none" xmlns="http://www.w3.org/2000/svg">
<g clip-path="url(#clip0_549_1831)">
<path d="M6.9395 24.9541L0 31.7873H13.878L6.9395 24.9541Z" fill="#A02870"/>
<path d="M13.8767 33.2145H0.00292969L6.93953 40.0472L13.8767 33.2145V33.2145Z" fill="#80286C"/>
<path d="M23.2886 23.9448L16.3496 17.1113V30.7776L23.2886 23.9448Z" fill="#C42C79"/>
<path d="M14.9013 30.7776V17.1113L7.96289 23.9448L14.9013 30.7776Z" fill="#A02870"/>
<path d="M24.3145 22.9352L31.2524 16.103H17.375L24.3145 22.9352Z" fill="#C42C79"/>
<path d="M24.3143 7.84229L17.374 14.6763H31.2514L24.3143 7.84229Z" fill="#E4327F"/>
<path d="M40.6616 6.83351L33.7236 0V13.6662L40.6616 6.83351Z" fill="#0A8B4B"/>
<path d="M32.2751 13.6668V0L25.3369 6.83351L32.2751 13.6668Z" fill="#E4327F"/>
<path d="M23.2886 41.0554L16.3496 34.2234V47.8893L23.2886 41.0554Z" fill="#632A69"/>
<path d="M7.96387 41.0554L14.9021 47.888V34.2234L7.96387 41.0554Z" fill="#80286C"/>
<path d="M41.6869 22.9352L48.6251 16.103H34.749L41.6869 22.9352Z" fill="#167B55"/>
<path d="M34.748 14.6758H48.6247L41.6865 7.84229L34.748 14.6758Z" fill="#0A8B4B"/>
<path d="M31.252 50.3239H17.374L24.3125 57.1582L31.252 50.3239Z" fill="#402863"/>
<path d="M24.314 42.0652L17.375 48.8974H31.2498L24.314 42.0652Z" fill="#632A69"/>
<path d="M58.0358 23.9448L51.0977 17.1121V30.777L58.0358 23.9448Z" fill="#21695E"/>
<path d="M42.7109 23.9448L49.6496 30.7784V17.1113L42.7109 23.9448Z" fill="#167B55"/>
<path d="M25.3379 58.1671L32.2755 64.9999V51.3336L25.3379 58.1671Z" fill="#402863"/>
<path d="M33.7236 51.3343V64.9995L40.662 58.1673L33.7236 51.3343ZM41.6861 57.1585L48.6252 50.3245H34.7469L41.6861 57.1585Z" fill="#223160"/>
<path d="M41.6871 42.0652L34.75 48.8974H48.624L41.6871 42.0652Z" fill="#1E4561"/>
<path d="M51.0986 34.2234V47.8882L58.0363 41.0553L51.0986 34.2234Z" fill="#245661"/>
<path d="M42.7109 41.0549L49.6496 47.8884V34.2222L42.7109 41.0549Z" fill="#1E4561"/>
<path d="M59.0617 40.0473L66.0007 33.2137H52.124L59.0617 40.0473Z" fill="#245661"/>
<path d="M59.0606 24.9541L52.1211 31.7873H65.9996L59.0606 24.9541Z" fill="#21695E"/>
</g>
<defs>
<clipPath id="clip0_549_1831">
<rect width="66" height="65" fill="white"/>
</clipPath>
</defs>
</svg>
