<svg width="65" height="65" viewBox="0 0 65 65" fill="none" xmlns="http://www.w3.org/2000/svg">
<g clip-path="url(#clip0_549_1750)">
<path d="M32.5 65C50.4493 65 65 50.4493 65 32.5C65 14.5507 50.4493 0 32.5 0C14.5507 0 0 14.5507 0 32.5C0 50.4493 14.5507 65 32.5 65Z" fill="#FF439B"/>
<path fill-rule="evenodd" clip-rule="evenodd" d="M37.0216 28.0394L48.4636 47.7344H16.7477L20.5481 41.4314L37.635 41.4355L33.3044 34.3667L37.0216 28.0394ZM25.3419 32.6219L36.9748 13.2844L52.8125 39.9486H45.2075L36.8387 25.4048L32.7742 32.6239L25.3419 32.6219ZM35.2645 39.973L12.1875 39.8633L28.0455 13.2031L31.8236 19.5934L23.0831 33.6456H31.5473L35.2645 39.973Z" fill="white"/>
</g>
<defs>
<clipPath id="clip0_549_1750">
<rect width="65" height="65" fill="white"/>
</clipPath>
</defs>
</svg>
