<svg width="65" height="65" viewBox="0 0 65 65" fill="none" xmlns="http://www.w3.org/2000/svg">
<path d="M61.7495 2.0083C61.5669 2.0083 61.3843 2.11785 61.3113 2.30044L41.0444 43.8566C39.2916 47.4353 34.2158 47.4353 32.4995 43.8566L12.3057 2.51954C12.1596 2.2274 11.831 2.0083 11.5023 2.0083H0.985446C0.328143 2.0083 -0.110059 2.70212 0.182076 3.28639L28.1175 60.0701C30.0163 63.9044 35.4939 63.8679 37.3562 59.9971L64.5978 2.70212C64.7439 2.37347 64.5248 2.0083 64.1596 2.0083H61.7495Z" fill="url(#paint0_linear_549_1786)"/>
<path opacity="0.2" d="M25.6341 55.0673L1.27734 5.55042L18.7689 25.8173L25.6341 55.0673Z" fill="white"/>
<path opacity="0.2" d="M30.1624 39.0363L18.7691 25.8172L14.168 6.39026L30.1624 39.0363Z" fill="white"/>
<path opacity="0.1" d="M18.7692 25.819L1.27758 5.55213L0.182076 3.3246C-0.110059 2.74033 0.328143 2.04651 0.985446 2.04651H11.5023C11.831 2.04651 12.1596 2.22909 12.3057 2.55774L14.2045 6.42853L18.7692 25.819Z" fill="white"/>
<defs>
<linearGradient id="paint0_linear_549_1786" x1="8.353" y1="8.17461" x2="54.1404" y2="39.9218" gradientUnits="userSpaceOnUse">
<stop stop-color="#B290D8"/>
<stop offset="1" stop-color="#26BFE2"/>
</linearGradient>
</defs>
</svg>
