<svg width="44" height="44" viewBox="0 0 44 44" fill="none" xmlns="http://www.w3.org/2000/svg">
<rect width="44" height="44" rx="22" fill="#5865F2"/>
<path d="M30.0221 14.7886C32.6148 18.6275 33.8952 22.9577 33.4165 27.9427C33.4145 27.9638 33.4036 27.9832 33.3864 27.9959C31.423 29.4478 29.5208 30.3289 27.6453 30.9132C27.6307 30.9177 27.615 30.9174 27.6006 30.9125C27.5861 30.9076 27.5735 30.8982 27.5646 30.8858C27.1313 30.2786 26.7376 29.6385 26.3927 28.9663C26.3729 28.9267 26.391 28.879 26.4317 28.8634C27.057 28.6262 27.6516 28.3418 28.2235 28.0051C28.2685 27.9785 28.2714 27.9135 28.2298 27.8823C28.1084 27.7916 27.9882 27.6962 27.8731 27.6008C27.8516 27.5832 27.8226 27.5797 27.7982 27.5916C24.0853 29.3183 20.018 29.3183 16.2611 27.5916C16.2368 27.5806 16.2078 27.5844 16.1868 27.6017C16.072 27.6971 15.9515 27.7916 15.8313 27.8823C15.7897 27.9135 15.7931 27.9785 15.8385 28.0051C16.4104 28.3354 17.0049 28.6262 17.6294 28.8646C17.6698 28.8802 17.689 28.9267 17.669 28.9663C17.3315 29.6394 16.9378 30.2795 16.4964 30.8866C16.4772 30.9112 16.4457 30.9225 16.4158 30.9132C14.5492 30.3289 12.6469 29.4478 10.6836 27.9959C10.6672 27.9832 10.6555 27.9629 10.6537 27.9418C10.2537 23.6298 11.069 19.2638 14.045 14.7877C14.0522 14.7758 14.0631 14.7666 14.0757 14.7611C15.54 14.0843 17.1088 13.5864 18.7485 13.302C18.7783 13.2974 18.8082 13.3112 18.8237 13.3378C19.0263 13.6991 19.2578 14.1623 19.4145 14.5409C21.1428 14.275 22.8982 14.275 24.6626 14.5409C24.8193 14.1704 25.0429 13.6991 25.2446 13.3378C25.2518 13.3246 25.2629 13.3141 25.2764 13.3076C25.2899 13.3012 25.3051 13.2992 25.3198 13.302C26.9603 13.5872 28.5291 14.0852 29.9923 14.7611C30.0052 14.7666 30.0158 14.7758 30.0221 14.7886V14.7886ZM20.2932 22.9871C20.3112 21.7124 19.3884 20.6576 18.2299 20.6576C17.081 20.6576 16.167 21.7032 16.167 22.9871C16.167 24.2708 17.0991 25.3164 18.2299 25.3164C19.3792 25.3164 20.2932 24.2708 20.2932 22.9871V22.9871ZM27.921 22.9871C27.9391 21.7124 27.0163 20.6576 25.8581 20.6576C24.7088 20.6576 23.7949 21.7032 23.7949 22.9871C23.7949 24.2708 24.7269 25.3164 25.8581 25.3164C27.0163 25.3164 27.921 24.2708 27.921 22.9871V22.9871Z" fill="white"/>
</svg>
