<svg width="45" height="45" viewBox="0 0 45 45" fill="none" xmlns="http://www.w3.org/2000/svg">
<rect x="0.940918" y="0.0341797" width="44" height="44" rx="22" fill="#1B1F23"/>
<path fill-rule="evenodd" clip-rule="evenodd" d="M22.9186 10.126C16.0859 10.126 10.5518 15.6381 10.5518 22.4436C10.5518 27.8941 14.0918 32.4978 19.0076 34.1299C19.6259 34.2377 19.8578 33.8682 19.8578 33.5448C19.8578 33.2523 19.8423 32.2823 19.8423 31.2507C16.7352 31.8204 15.9313 30.4962 15.684 29.8034C15.5449 29.4492 14.942 28.356 14.4164 28.0635C13.9835 27.8325 13.3652 27.2629 14.4009 27.2475C15.3748 27.2321 16.0704 28.1405 16.3023 28.51C17.4153 30.3731 19.1931 29.8496 19.9042 29.5262C20.0124 28.7256 20.337 28.1867 20.6925 27.8787C17.9409 27.5708 15.0656 26.5084 15.0656 21.7969C15.0656 20.4574 15.5449 19.3488 16.3332 18.4866C16.2096 18.1786 15.7767 16.9161 16.4569 15.2224C16.4569 15.2224 17.4926 14.8991 19.8578 16.4849C20.8471 16.2078 21.8983 16.0692 22.9495 16.0692C24.0007 16.0692 25.0518 16.2078 26.0412 16.4849C28.4063 14.8837 29.442 15.2224 29.442 15.2224C30.1222 16.9161 29.6894 18.1786 29.5657 18.4866C30.3541 19.3488 30.8333 20.442 30.8333 21.7969C30.8333 26.5238 27.9426 27.5708 25.191 27.8787C25.6393 28.2637 26.0257 29.0027 26.0257 30.1575C26.0257 31.805 26.0103 33.1291 26.0103 33.5448C26.0103 33.8682 26.2421 34.2531 26.8605 34.1299C31.7454 32.4978 35.2854 27.8787 35.2854 22.4436C35.2854 15.6381 29.7512 10.126 22.9186 10.126Z" fill="white"/>
</svg>
