<svg width="44" height="44" viewBox="0 0 44 44" fill="none" xmlns="http://www.w3.org/2000/svg">
<rect width="44" height="44" rx="22" fill="black"/>
<path d="M23.5839 22.5878C23.5839 26.3549 20.4788 29.4138 16.6321 29.4138C12.7855 29.4138 9.68042 26.3549 9.68042 22.5878C9.68042 18.8206 12.7855 15.7617 16.6321 15.7617C20.4788 15.7617 23.5839 18.8206 23.5839 22.5878ZM31.1999 22.5878C31.1999 26.1289 29.6396 29.007 27.724 29.007C25.8084 29.007 24.2481 26.1289 24.2481 22.5878C24.2481 19.0467 25.8084 16.1686 27.724 16.1686C29.6396 16.1686 31.1999 19.0316 31.1999 22.5878ZM34.3204 22.5878C34.3204 25.7673 33.7797 28.344 33.1 28.344C32.4203 28.344 31.8796 25.7673 31.8796 22.5878C31.8796 19.4083 32.4203 16.8316 33.1 16.8316C33.7797 16.8316 34.3204 19.4083 34.3204 22.5878Z" fill="white"/>
</svg>
