<svg width="44" height="44" viewBox="0 0 44 44" fill="none" xmlns="http://www.w3.org/2000/svg">
<rect width="44" height="44" rx="22" fill="#FF4500"/>
<path d="M32.9997 22.2013C33.003 22.4256 32.975 22.6494 32.9155 22.8659C32.8561 23.0824 32.766 23.2899 32.648 23.4814C32.5303 23.6729 32.3858 23.8473 32.219 23.9991C32.0522 24.1509 31.8647 24.2786 31.662 24.3785C31.6665 24.4382 31.6702 24.4984 31.6723 24.5585C31.6773 24.6785 31.6773 24.7987 31.6723 24.9187C31.6702 24.9788 31.6665 25.039 31.662 25.0987C31.662 28.7656 27.3514 31.7449 22.0333 31.7449C16.7153 31.7449 12.4047 28.7656 12.4047 25.0987C12.4002 25.039 12.3965 24.9788 12.3944 24.9187C12.3894 24.7987 12.3894 24.6785 12.3944 24.5585C12.3965 24.4984 12.4002 24.4382 12.4047 24.3785C12.0871 24.2338 11.805 24.0224 11.5779 23.759C11.3509 23.4955 11.1843 23.1864 11.0897 22.8528C10.9952 22.5191 10.9751 22.1691 11.0307 21.8269C11.0863 21.4847 11.2163 21.1587 11.4117 20.8713C11.6069 20.5839 11.8629 20.3421 12.1619 20.1626C12.4608 19.9831 12.7956 19.8702 13.143 19.8318C13.4904 19.7932 13.8421 19.8299 14.1738 19.9394C14.5054 20.049 14.8091 20.2287 15.0637 20.4661C15.5364 20.1485 16.0317 19.8653 16.5456 19.6186C17.0597 19.3722 17.591 19.1627 18.1357 18.9924C18.6803 18.8222 19.2368 18.6916 19.8004 18.6012C20.364 18.5107 20.9338 18.4612 21.5048 18.4526L22.727 12.7723C22.7406 12.7064 22.7675 12.6442 22.8059 12.5885C22.8439 12.5333 22.893 12.4858 22.9496 12.4494C23.0065 12.413 23.0701 12.388 23.137 12.3757C23.2035 12.3639 23.272 12.3651 23.3381 12.3794L27.3844 13.1815C27.7928 12.4862 28.6499 12.1883 29.4068 12.4781C30.1636 12.7678 30.5963 13.5597 30.427 14.3463C30.2581 15.1328 29.5372 15.6812 28.7271 15.6399C27.9166 15.5985 27.2564 14.9798 27.1697 14.1801L23.6354 13.4435L22.5618 18.5508C23.1259 18.5627 23.6886 18.6151 24.2452 18.7072C25.3598 18.8913 26.4417 19.234 27.4575 19.7245C27.9648 19.9693 28.4537 20.2499 28.9204 20.5643C29.2559 20.245 29.6775 20.0288 30.1343 19.9419C30.5911 19.8546 31.0636 19.9002 31.4948 20.0732C31.926 20.2462 32.2975 20.5391 32.5646 20.9167C32.8317 21.2943 32.9828 21.7404 32.9997 22.2013V22.2013ZM16.6096 24.4648C16.693 24.6633 16.8144 24.8438 16.968 24.9956C17.1212 25.1479 17.3033 25.2682 17.5035 25.3508C17.704 25.433 17.9187 25.4753 18.1357 25.4753C18.8037 25.4753 19.4057 25.0762 19.6617 24.4648C19.9173 23.853 19.7757 23.1491 19.3033 22.6809C18.831 22.2128 18.1208 22.0724 17.5035 22.3257C16.8867 22.5794 16.4841 23.1761 16.4841 23.8383C16.4841 24.0531 16.5266 24.2659 16.6096 24.4648V24.4648ZM26.0689 28.3944C26.1536 28.3125 26.2019 28.2008 26.2036 28.0838C26.2052 27.9663 26.1594 27.8534 26.0768 27.7695C25.9942 27.6856 25.8815 27.6377 25.7634 27.6361C25.6449 27.6344 25.531 27.6799 25.4356 27.7507C25.1872 27.9272 24.9242 28.0826 24.6494 28.2151C24.3746 28.3478 24.089 28.4572 23.7956 28.5421C23.5024 28.6268 23.2022 28.687 22.8988 28.7218C22.5949 28.7566 22.2889 28.7656 21.9838 28.7492C21.6791 28.7627 21.3735 28.7504 21.0709 28.7128C20.7682 28.6755 20.4692 28.6125 20.1774 28.5245C19.8851 28.437 19.6014 28.3248 19.3285 28.1898C19.0556 28.0547 18.7946 27.8968 18.5485 27.7179C18.4631 27.6483 18.3545 27.6127 18.2438 27.6181C18.1332 27.6234 18.0287 27.6696 17.9503 27.747C17.8722 27.8247 17.8256 27.9283 17.8202 28.0379C17.8148 28.1476 17.8508 28.2553 17.921 28.34C18.2112 28.5569 18.5196 28.7484 18.8429 28.9129C19.1662 29.0774 19.5036 29.2137 19.8504 29.3209C20.1972 29.4281 20.5527 29.5055 20.9132 29.5526C21.2736 29.5992 21.6374 29.6152 22.0003 29.6004C22.3632 29.6152 22.727 29.5992 23.0875 29.5526C23.8094 29.4584 24.5097 29.2421 25.1577 28.9129C25.481 28.7484 25.7894 28.5569 26.0797 28.34L26.0689 28.3944ZM25.7659 25.6062C25.9897 25.6087 26.2118 25.5657 26.4187 25.4806C26.6255 25.395 26.8126 25.269 26.9686 25.1098C27.1247 24.9506 27.2461 24.7615 27.3262 24.554C27.4064 24.3468 27.443 24.1255 27.434 23.9038C27.434 23.2416 27.0314 22.6449 26.4145 22.3912C25.7973 22.1379 25.0871 22.2782 24.6147 22.7464C24.1424 23.2146 24.0008 23.9185 24.2564 24.5303C24.5123 25.1417 25.1143 25.5407 25.7824 25.5407L25.7659 25.6062Z" fill="white"/>
</svg>
