<svg width="44" height="44" viewBox="0 0 44 44" fill="none" xmlns="http://www.w3.org/2000/svg">
<rect width="44" height="44" rx="22" fill="#33CCFF"/>
<path d="M32.9203 15.0341C32.1937 15.347 31.43 15.565 30.6478 15.6825C31.0135 15.6197 31.5516 14.9609 31.7657 14.6942C32.0911 14.292 32.3391 13.8328 32.4971 13.34C32.4971 13.3034 32.5337 13.2511 32.4971 13.225C32.4787 13.2149 32.458 13.2096 32.437 13.2096C32.416 13.2096 32.3954 13.2149 32.377 13.225C31.5276 13.6853 30.6237 14.0367 29.6866 14.2707C29.6539 14.2807 29.6192 14.2816 29.586 14.2733C29.5529 14.265 29.5226 14.2479 29.4985 14.2237C29.4256 14.1367 29.347 14.0546 29.2634 13.9779C28.8812 13.6352 28.4475 13.3546 27.9783 13.1466C27.3449 12.8865 26.6608 12.7738 25.9775 12.8172C25.3145 12.8591 24.6673 13.037 24.076 13.34C23.4937 13.6595 22.9819 14.0934 22.5714 14.6158C22.1397 15.1535 21.828 15.7775 21.6572 16.4459C21.5165 17.0816 21.5005 17.7386 21.6102 18.3805C21.6102 18.4903 21.6102 18.5059 21.5162 18.4903C17.7915 17.9413 14.7354 16.6184 12.2383 13.7792C12.1286 13.6537 12.0711 13.6537 11.9823 13.7792C10.8957 15.4315 11.4234 18.0458 12.7816 19.3373C12.9645 19.5099 13.1525 19.6772 13.351 19.834C12.7283 19.7898 12.1207 19.6209 11.5644 19.3373C11.4599 19.2693 11.4025 19.3059 11.3972 19.4314C11.3824 19.6054 11.3824 19.7803 11.3972 19.9543C11.5063 20.7881 11.8345 21.5779 12.3485 22.243C12.8625 22.9081 13.5438 23.4247 14.3227 23.7399C14.5126 23.8213 14.7104 23.8826 14.913 23.9229C14.3365 24.0365 13.7452 24.0541 13.163 23.9751C13.0376 23.949 12.9906 24.017 13.0376 24.1372C13.8055 26.2287 15.472 26.8666 16.6944 27.2221C16.8616 27.2483 17.0288 27.2483 17.2168 27.2901C17.2168 27.2901 17.2168 27.2901 17.1855 27.3215C16.825 27.9803 15.3675 28.4247 14.6988 28.6548C13.4783 29.0936 12.177 29.2613 10.8853 29.1463C10.6816 29.1149 10.6345 29.1202 10.5823 29.1463C10.5301 29.1724 10.5823 29.23 10.6398 29.2822C10.901 29.4548 11.1622 29.6064 11.4338 29.7528C12.2425 30.1943 13.0975 30.545 13.9831 30.7986C18.5698 32.0639 23.7312 31.1332 27.1738 27.7084C29.8799 25.0209 30.8306 21.3137 30.8306 17.6014C30.8306 17.4602 31.003 17.3766 31.1023 17.3034C31.7869 16.7695 32.3905 16.1389 32.8941 15.4315C32.9814 15.326 33.0261 15.1918 33.0195 15.055V15.055C33.0195 14.9766 33.0195 14.9923 32.9203 15.0341Z" fill="white"/>
</svg>
