<svg width="44" height="44" viewBox="0 0 44 44" fill="none" xmlns="http://www.w3.org/2000/svg">
<rect width="44" height="44" rx="22" fill="#FF0000"/>
<path d="M34.2378 15.9482C33.9505 14.8682 33.1007 14.0162 32.0194 13.7242C30.0644 13.2002 22.2204 13.2002 22.2204 13.2002C22.2204 13.2002 14.3804 13.2002 12.4214 13.7242C11.3442 14.0122 10.4943 14.8642 10.2031 15.9482C9.68042 17.9082 9.68042 22.0002 9.68042 22.0002C9.68042 22.0002 9.68042 26.0922 10.2031 28.0522C10.4904 29.1322 11.3402 29.9842 12.4214 30.2762C14.3804 30.8002 22.2204 30.8002 22.2204 30.8002C22.2204 30.8002 30.0644 30.8002 32.0194 30.2762C33.0967 29.9882 33.9465 29.1362 34.2378 28.0522C34.7604 26.0922 34.7604 22.0002 34.7604 22.0002C34.7604 22.0002 34.7604 17.9082 34.2378 15.9482Z" fill="white"/>
<path d="M19.7148 25.7722L26.2302 22.0002L19.7148 18.2282V25.7722Z" fill="#FF0000"/>
</svg>
