<svg width="40" height="40" viewBox="0 0 40 40" fill="none" xmlns="http://www.w3.org/2000/svg">
<g clip-path="url(#clip0_321_957)">
<path d="M9.40164 35.99L6.6933 31.2988C6.65136 31.2133 6.62956 31.1193 6.62956 31.0241C6.62956 30.9289 6.65136 30.8349 6.6933 30.7494L9.7006 25.5418C9.75349 25.4615 9.82439 25.3945 9.90766 25.3463C9.99094 25.2981 10.0843 25.27 10.1803 25.2642H16.1938C16.29 25.27 16.3835 25.2981 16.467 25.3463C16.5504 25.3945 16.6215 25.4614 16.6747 25.5418L19.682 30.7494C19.7245 30.8358 19.7466 30.9308 19.7466 31.0271C19.7466 31.1233 19.7245 31.2184 19.682 31.3047L16.6747 36.5123C16.6218 36.591 16.5518 36.6567 16.47 36.7046C16.3881 36.7525 16.2965 36.7812 16.202 36.7888H10.796C10.518 36.771 10.2478 36.6897 10.0061 36.5513C9.76436 36.4128 9.5576 36.2208 9.40164 35.99V35.99ZM28.9307 25.2736L22.9398 14.9011C22.867 14.7914 22.7698 14.7001 22.6558 14.6343C22.5419 14.5685 22.4142 14.53 22.2828 14.5218H10.3009C10.1695 14.53 10.0418 14.5685 9.92783 14.6343C9.81384 14.7001 9.71665 14.7914 9.64388 14.9011L3.65292 25.2783C3.59406 25.3961 3.56341 25.526 3.56341 25.6576C3.56341 25.7893 3.59406 25.9192 3.65292 26.037L5.40885 29.0809L8.48114 23.7635C8.56439 23.6357 8.67655 23.5293 8.80855 23.4529C8.94055 23.3766 9.08868 23.3324 9.24094 23.3239H17.1344C17.2866 23.3324 17.4347 23.3766 17.5667 23.4529C17.6987 23.5293 17.8109 23.6357 17.8941 23.7635L21.842 30.6005C21.9108 30.7366 21.9466 30.887 21.9466 31.0395C21.9466 31.192 21.9108 31.3423 21.842 31.4784L18.7698 36.7959H22.2792C22.4108 36.7877 22.5386 36.7491 22.6526 36.6831C22.7666 36.6171 22.8637 36.5254 22.9362 36.4154L28.9272 26.0393C28.9878 25.9209 29.0197 25.7899 29.0203 25.6569C29.0209 25.5239 28.9902 25.3926 28.9307 25.2736ZM39.8019 18.4094L30.6122 2.48551C30.4565 2.24752 30.2471 2.04943 30.0008 1.9072C29.7545 1.76497 29.4782 1.68256 29.1943 1.66663L10.8066 1.66663C10.5227 1.68256 10.2464 1.76497 10.0001 1.9072C9.75382 2.04943 9.54437 2.24752 9.38864 2.48551L0.195418 18.4094C0.0672578 18.6631 0.000488281 18.9434 0.000488281 19.2277C0.000488281 19.512 0.0672578 19.7923 0.195418 20.046L2.3023 23.6949L8.41142 13.1121C8.51433 12.9545 8.65289 12.8234 8.81589 12.7294C8.97889 12.6354 9.16175 12.5811 9.34965 12.5709H23.2234C23.4113 12.5811 23.5941 12.6354 23.7571 12.7294C23.9201 12.8234 24.0587 12.9545 24.1616 13.1121L31.0991 25.1283C31.1841 25.296 31.2284 25.4814 31.2284 25.6695C31.2284 25.8575 31.1841 26.0429 31.0991 26.2107L24.9911 36.7888H29.1943C29.4782 36.7728 29.7545 36.6904 30.0008 36.5482C30.2471 36.406 30.4565 36.2079 30.6122 35.9699L39.8055 20.046C39.9336 19.7923 40.0004 19.512 40.0004 19.2277C40.0004 18.9434 39.9336 18.6631 39.8055 18.4094H39.8019Z" fill="url(#paint0_linear_321_957)"/>
</g>
<defs>
<linearGradient id="paint0_linear_321_957" x1="10.0007" y1="36.5477" x2="30.0013" y2="1.90769" gradientUnits="userSpaceOnUse">
<stop stop-color="#FFDC00"/>
<stop offset="0.33" stop-color="#E58E2F"/>
<stop offset="0.67" stop-color="#DB2D72"/>
<stop offset="1" stop-color="#FF00FF"/>
</linearGradient>
<clipPath id="clip0_321_957">
<rect width="40" height="40" fill="white"/>
</clipPath>
</defs>
</svg>
