<svg width="40" height="40" viewBox="0 0 40 40" fill="none" xmlns="http://www.w3.org/2000/svg">
<g clip-path="url(#clip0_321_1024)">
<path d="M20 40C31.0457 40 40 31.0457 40 20C40 8.9543 31.0457 0 20 0C8.9543 0 0 8.9543 0 20C0 31.0457 8.9543 40 20 40Z" fill="#B3BA00"/>
<path d="M16.4125 13.33L16.25 13.4288L23.75 25V13.4187L20.005 11.25L16.4125 13.33ZM16.25 26.4563L20.17 28.75L23.75 26.66L16.25 15V26.4563ZM12.5 15.445V24.555L15 26.25V13.75L12.5 15.445ZM25 26.25L27.5 24.5163V15.4838L25 13.75V26.25Z" fill="white"/>
<path d="M20 5C11.7188 5 5 11.7188 5 20C5 28.2812 11.7188 35 20 35C28.2812 35 35 28.2812 35 20C35 11.7188 28.2812 5 20 5ZM19.9375 29.525L11.8425 24.725V15.14L19.9388 10.3525L28.0338 15.14V24.7263L19.9388 29.5237L19.9375 29.525Z" fill="white"/>
</g>
<defs>
<clipPath id="clip0_321_1024">
<rect width="40" height="40" fill="white"/>
</clipPath>
</defs>
</svg>
