<svg width="40" height="40" viewBox="0 0 40 40" fill="none" xmlns="http://www.w3.org/2000/svg">
<g clip-path="url(#clip0_321_979)">
<path d="M31.3711 2.60256e-06C29.0865 -0.00177101 26.8944 0.903043 25.2762 2.51583C23.658 4.12861 22.7459 6.31758 22.74 8.60223V18.14C21.8511 18.2 20.9422 18.2378 20 18.2378C19.0578 18.2378 18.1533 18.2756 17.26 18.3289V8.60223C17.2237 6.33739 16.2984 4.17761 14.684 2.58883C13.0695 1.00004 10.8951 0.109602 8.63 0.109602C6.36487 0.109602 4.19053 1.00004 2.57604 2.58883C0.961558 4.17761 0.0363445 6.33739 0 8.60223V31.3978C0.0363445 33.6626 0.961558 35.8224 2.57604 37.4112C4.19053 39 6.36487 39.8904 8.63 39.8904C10.8951 39.8904 13.0695 39 14.684 37.4112C16.2984 35.8224 17.2237 33.6626 17.26 31.3978V21.86C18.1489 21.8 19.0578 21.7622 20 21.7622C20.9422 21.7622 21.8467 21.7245 22.74 21.6711V31.3978C22.7763 33.6626 23.7016 35.8224 25.316 37.4112C26.9305 39 29.1049 39.8904 31.37 39.8904C33.6351 39.8904 35.8095 39 37.424 37.4112C39.0384 35.8224 39.9637 33.6626 40 31.3978V8.60223C39.9941 6.31796 39.0823 4.12933 37.4645 2.51661C35.8468 0.903892 33.6554 -0.00118213 31.3711 2.60256e-06V2.60256e-06ZM8.62889 3.52445C9.97721 3.52385 11.2707 4.05815 12.2256 5.0101C13.1804 5.96205 13.7187 7.2539 13.7222 8.60223V18.7022C11.1973 19.0681 8.73161 19.7652 6.38889 20.7756C5.37385 21.221 4.41833 21.7914 3.54444 22.4733V8.60223C3.54797 7.25544 4.085 5.96493 5.03794 5.01323C5.99089 4.06154 7.2821 3.52621 8.62889 3.52445V3.52445ZM13.7222 31.3978C13.7222 32.7486 13.1856 34.0441 12.2304 34.9993C11.2752 35.9545 9.97973 36.4911 8.62889 36.4911C7.27805 36.4911 5.98254 35.9545 5.02736 34.9993C4.07217 34.0441 3.53556 32.7486 3.53556 31.3978V29.1111C3.53556 27.0911 5.13556 25.1778 7.81778 23.9867C9.70772 23.1713 11.6907 22.5914 13.7222 22.26V31.3978V31.3978ZM31.3711 36.4756C30.0228 36.4762 28.7293 35.9419 27.7744 34.9899C26.8196 34.038 26.2813 32.7461 26.2778 31.3978V21.2978C28.8027 20.9319 31.2684 20.2348 33.6111 19.2244C34.6261 18.779 35.5817 18.2086 36.4556 17.5267V31.3978C36.452 32.7446 35.915 34.0351 34.9621 34.9868C34.0091 35.9385 32.7179 36.4738 31.3711 36.4756V36.4756ZM32.1822 16C30.2923 16.8154 28.3093 17.3953 26.2778 17.7267V8.60223C26.2778 7.25139 26.8144 5.95588 27.7696 5.00069C28.7248 4.04551 30.0203 3.50889 31.3711 3.50889C32.7219 3.50889 34.0175 4.04551 34.9726 5.00069C35.9278 5.95588 36.4644 7.25139 36.4644 8.60223V10.8889C36.4644 12.9 34.8644 14.8133 32.1822 16Z" fill="url(#paint0_linear_321_979)"/>
</g>
<defs>
<linearGradient id="paint0_linear_321_979" x1="2.53333" y1="36.9185" x2="37.2385" y2="2.11858" gradientUnits="userSpaceOnUse">
<stop stop-color="#00AEE9"/>
<stop offset="1" stop-color="#69FABD"/>
</linearGradient>
<clipPath id="clip0_321_979">
<rect width="40" height="40" fill="white"/>
</clipPath>
</defs>
</svg>
