<svg width="40" height="40" viewBox="0 0 40 40" fill="none" xmlns="http://www.w3.org/2000/svg">
<path fill-rule="evenodd" clip-rule="evenodd" d="M20.0566 7.04102C16.9367 7.04102 14.4076 9.57026 14.4076 12.69C14.4076 12.8066 14.418 12.9202 14.425 13.0349L14.4175 13.0226C14.4175 13.0226 14.316 14.6402 13.6193 15.1628C12.9227 15.6854 11.3395 15.2598 11.3395 15.2598L11.3419 15.264C10.4505 14.6762 9.38455 14.3318 8.23714 14.3318C5.11714 14.3318 2.58789 16.8611 2.58789 19.9808C2.58789 23.1008 5.11714 25.63 8.23714 25.63C11.3569 25.63 13.8862 23.1008 13.8862 19.9808C13.8862 19.8703 13.8759 19.7624 13.8697 19.6533L13.8774 19.6666C13.8774 19.6666 13.893 18.0494 14.7577 17.4789C15.6224 16.9086 17.1449 17.5318 17.1449 17.5318L17.1377 17.52C17.9905 18.0364 18.987 18.3393 20.0566 18.3393C23.1765 18.3393 25.7058 15.8099 25.7058 12.69C25.7058 9.57026 23.1765 7.04102 20.0566 7.04102Z" fill="#FFE800"/>
<path fill-rule="evenodd" clip-rule="evenodd" d="M31.9584 14.1744C28.8385 14.1744 26.3093 16.7038 26.3093 19.8235C26.3093 19.94 26.3198 20.0538 26.3267 20.1684L26.3192 20.1561C26.3192 20.1561 26.2177 21.7737 25.5211 22.2962C24.9505 22.7242 23.7868 22.5166 23.3836 22.4273C22.4674 21.7865 21.3547 21.4076 20.152 21.4076C17.032 21.4076 14.5027 23.9369 14.5027 27.0568C14.5027 27.1731 14.5131 27.2869 14.5201 27.4015L14.5126 27.3891C14.5126 27.3891 14.4111 29.0069 13.7145 29.5294C13.0178 30.052 11.4346 29.6265 11.4346 29.6265L11.4371 29.6306C10.5457 29.0428 9.47965 28.6984 8.33235 28.6984C5.21235 28.6984 2.68311 31.2276 2.68311 34.3474C2.68311 37.4672 5.21235 39.9967 8.33235 39.9967C11.452 39.9967 13.9814 37.4672 13.9814 34.3474C13.9814 34.2368 13.971 34.1289 13.9648 34.0198L13.9726 34.0332C13.9726 34.0332 13.9881 32.4158 14.8529 31.8455C15.7175 31.275 17.2401 31.8984 17.2401 31.8984L17.2329 31.8864C18.0857 32.4031 19.0822 32.7058 20.152 32.7058C23.2716 32.7058 25.8009 30.1767 25.8009 27.0568C25.8009 26.9372 25.7903 26.8205 25.7831 26.7028C25.8021 26.3494 25.9202 25.0998 26.6594 24.6123C27.5242 24.042 29.0468 24.6654 29.0468 24.6654L29.0393 24.6533C29.8922 25.1699 30.8888 25.4727 31.9584 25.4727C35.0784 25.4727 37.6076 22.9435 37.6076 19.8235C37.6076 16.7038 35.0784 14.1744 31.9584 14.1744Z" fill="#FFE800"/>
<path fill-rule="evenodd" clip-rule="evenodd" d="M13.8278 5.71387C13.8278 8.86975 11.2697 11.4279 8.11377 11.4279C4.95812 11.4279 2.3999 8.86975 2.3999 5.71387C2.3999 2.55811 4.95812 0 8.11377 0C11.2697 0 13.8278 2.55811 13.8278 5.71387Z" fill="#FFE800"/>
</svg>
