<svg width="40" height="40" viewBox="0 0 40 40" fill="none" xmlns="http://www.w3.org/2000/svg">
<g clip-path="url(#clip0_321_935)">
<path d="M20 40C31.0457 40 40 31.0457 40 20C40 8.9543 31.0457 0 20 0C8.9543 0 0 8.9543 0 20C0 31.0457 8.9543 40 20 40Z" fill="#FDA616"/>
<path d="M14.9015 27.5C15.0478 27.955 16.8578 29.83 18.7415 29.83C21.534 29.83 23.1653 28.145 23.1653 25.7075C23.1653 23.45 22.0353 22.16 19.1803 20.905C15.729 19.5075 13.5953 17.4637 13.5953 14.0587C13.5953 10.2962 16.3253 7.5 20.4353 7.5C22.6003 7.5 24.794 8.8625 25.5215 9.7725L23.7753 11.5912C23.0853 11.1612 22.2565 10.08 20.3415 10.08C17.4553 10.08 16.3565 12.0513 16.3565 13.7C16.3565 15.9588 17.644 17.07 20.5603 18.36C24.1378 19.9375 25.9578 21.9087 25.9578 25.4562C25.9578 29.185 23.5278 32.5 18.539 32.5C16.499 32.5 14.3203 31.1375 13.0103 29.47L14.9015 27.5ZM17.229 14.6212C16.7928 13.7125 17.084 12.8038 17.084 12.8038C28.139 10.985 26.1028 21.7412 26.1028 21.7412C25.2303 20.0762 24.3578 19.7725 24.3578 19.7725C24.5028 13.56 17.229 14.6212 17.229 14.6212V14.6212ZM22.1753 24.47C22.6128 25.5313 22.1078 26.635 22.1078 26.635C9.52027 28.2575 12.9203 16.7475 12.9165 16.7475C13.584 18.515 14.414 18.9287 14.414 18.9287C14.1765 26.1362 22.1753 24.47 22.1753 24.47V24.47Z" fill="white"/>
</g>
<defs>
<clipPath id="clip0_321_935">
<rect width="40" height="40" fill="white"/>
</clipPath>
</defs>
</svg>
