<svg width="40" height="40" viewBox="0 0 40 40" fill="none" xmlns="http://www.w3.org/2000/svg">
<g clip-path="url(#clip0_321_891)">
<path d="M39.9646 19.9929C39.9646 30.9839 31.0551 39.8934 20.0641 39.8934C9.07342 39.8934 0.163574 30.9839 0.163574 19.9929C0.163574 9.00206 9.07342 0.0924072 20.0641 0.0924072C31.0551 0.0924072 39.9646 9.00206 39.9646 19.9929Z" fill="#1BA27A"/>
<path d="M29.4038 10.1274H10.5601V14.6767H17.7073V21.3633H22.2566V14.6767H29.4038V10.1274Z" fill="white"/>
<path d="M20.0255 22.0756C14.1131 22.0756 9.31962 21.1399 9.31962 19.9855C9.31962 18.8312 14.1129 17.8953 20.0255 17.8953C25.9379 17.8953 30.7312 18.8312 30.7312 19.9855C30.7312 21.1399 25.9379 22.0756 20.0255 22.0756ZM32.0464 20.3339C32.0464 18.8454 26.6645 17.6388 20.0255 17.6388C13.3867 17.6388 8.00439 18.8454 8.00439 20.3339C8.00439 21.6448 12.1777 22.7369 17.7079 22.9789V32.5777H22.2567V22.9827C27.8295 22.7482 32.0464 21.6515 32.0464 20.3339Z" fill="white"/>
</g>
<defs>
<clipPath id="clip0_321_891">
<rect width="40" height="40" fill="white"/>
</clipPath>
</defs>
</svg>
