<svg width="41" height="40" viewBox="0 0 41 40" fill="none" xmlns="http://www.w3.org/2000/svg">
<path d="M17.446 22C17.446 23.38 16.326 24.5 14.946 24.5C13.566 24.5 12.446 23.38 12.446 22C12.446 20.62 13.566 19.5 14.946 19.5C16.326 19.5 17.446 20.62 17.446 22ZM26.946 19.5C25.566 19.5 24.446 20.62 24.446 22C24.446 23.38 25.566 24.5 26.946 24.5C28.326 24.5 29.446 23.38 29.446 22C29.446 20.62 28.326 19.5 26.946 19.5ZM40.946 20C40.946 31.04 31.986 40 20.946 40C9.90604 40 0.946045 31.04 0.946045 20C0.946045 8.96 9.90604 0 20.946 0C31.986 0 40.946 8.96 40.946 20ZM36.946 20C36.946 18.44 36.706 16.94 36.286 15.52C34.886 15.82 33.446 16 31.946 16C25.686 16 20.106 13.12 16.426 8.62C14.326 13.74 10.146 17.76 4.94604 19.72C4.96604 19.8 4.94604 19.9 4.94604 20C4.94604 28.82 12.126 36 20.946 36C29.766 36 36.946 28.82 36.946 20Z" fill="#7645D9"/>
</svg>
