<svg width="40" height="40" viewBox="0 0 40 40" fill="none" xmlns="http://www.w3.org/2000/svg">
<path d="M36.3636 14.0909C33.7273 14.0909 32.2545 16.7091 32.8545 18.6545L26.4 25.1272C25.8545 24.9636 25.0545 24.9636 24.5091 25.1272L19.8727 20.4909C20.4909 18.5454 19.0182 15.9091 16.3636 15.9091C13.7273 15.9091 12.2364 18.5272 12.8545 20.4909L4.56364 28.7636C2.61818 28.1636 0 29.6363 0 32.2727C0 34.2727 1.63636 35.9091 3.63636 35.9091C6.27273 35.9091 7.74545 33.2909 7.14545 31.3454L15.4182 23.0545C15.9636 23.2182 16.7636 23.2182 17.3091 23.0545L21.9455 27.6909C21.3273 29.6363 22.8 32.2727 25.4545 32.2727C28.0909 32.2727 29.5818 29.6545 28.9636 27.6909L35.4364 21.2363C37.3818 21.8363 40 20.3636 40 17.7272C40 15.7272 38.3636 14.0909 36.3636 14.0909Z" fill="#ED4FA0"/>
<path d="M25.4545 15.9091L27.1636 12.1455L30.9091 10.4545L27.1636 8.76364L25.4545 5L23.7818 8.76364L20 10.4545L23.7818 12.1455L25.4545 15.9091Z" fill="#ED4FA0"/>
<path d="M4.54545 19.5454L5.45455 15.9091L9.09091 15L5.45455 14.0909L4.54545 10.4545L3.63636 14.0909L0 15L3.63636 15.9091L4.54545 19.5454Z" fill="#ED4FA0"/>
</svg>
