<svg width="40" height="40" viewBox="0 0 40 40" fill="none" xmlns="http://www.w3.org/2000/svg">
<path d="M20 40C30.3636 40 38.8909 32.1091 39.9091 22C40.0182 20.9273 39.1636 20 38.0909 20C37.1636 20 36.3818 20.6909 36.2909 21.6C35.4909 29.8909 28.4909 36.3636 20 36.3636C14.3273 36.3636 9.32727 33.4727 6.4 29.0909H9.09091C10.0909 29.0909 10.9091 28.2727 10.9091 27.2727C10.9091 26.2727 10.0909 25.4545 9.09091 25.4545H1.81818C0.818182 25.4545 0 26.2727 0 27.2727V34.5455C0 35.5455 0.818182 36.3636 1.81818 36.3636C2.81818 36.3636 3.63636 35.5455 3.63636 34.5455V31.5091C7.25455 36.6364 13.2364 40 20 40ZM20 0C9.63636 0 1.10909 7.89091 0.090909 18C-8.9407e-08 19.0727 0.836364 20 1.90909 20C2.83636 20 3.61818 19.3091 3.70909 18.4C4.50909 10.1091 11.5091 3.63636 20 3.63636C25.6727 3.63636 30.6727 6.52727 33.6 10.9091H30.9091C29.9091 10.9091 29.0909 11.7273 29.0909 12.7273C29.0909 13.7273 29.9091 14.5455 30.9091 14.5455H38.1818C39.1818 14.5455 40 13.7273 40 12.7273V5.45455C40 4.45455 39.1818 3.63636 38.1818 3.63636C37.1818 3.63636 36.3636 4.45455 36.3636 5.45455V8.49091C32.7455 3.36364 26.7636 0 20 0ZM18.4 8.87273C18.4 7.98182 19.1273 7.27273 20 7.27273C20.8727 7.27273 21.6 7.98182 21.6 8.87273V9.54545C23.5455 9.89091 24.7818 10.9273 25.5273 11.9091C26.1455 12.7091 25.8182 13.8727 24.8727 14.2727C24.2182 14.5455 23.4545 14.3273 23.0182 13.7636C22.5091 13.0727 21.6 12.3636 20.1091 12.3636C18.8364 12.3636 16.8182 13.0364 16.8182 14.8909C16.8182 16.6182 18.3818 17.2727 21.6182 18.3455C25.9818 19.8545 27.0909 22.0727 27.0909 24.6182C27.0909 29.3818 22.5455 30.3091 21.6 30.4727V31.1455C21.6 32.0182 20.8909 32.7455 20 32.7455C19.1091 32.7455 18.4 32.0364 18.4 31.1455V30.3818C17.2545 30.1091 13.5091 26.5636 13.5091 26.5636C13.5091 26.5636 13.5636 24.7091 14.4 24.3818C15.1455 24.0909 16.0364 24.3636 16.4182 25.0727C17 26.1818 18.1455 27.5636 20.2727 27.5636C21.9636 27.5636 23.8727 26.6909 23.8727 24.6364C23.8727 22.8909 22.6 21.9818 19.7273 20.9455C17.7273 20.2364 13.6364 19.0727 13.6364 14.9273C13.6364 14.7455 13.6545 10.5636 18.4 9.54545V8.87273Z" fill="#1DC7D3"/>
</svg>
